<?xml version="1.0" encoding="utf-8"?>
<!-- Generator: Adobe Illustrator 24.3.0, SVG Export Plug-In . SVG Version: 6.00 Build 0)  -->
<svg version="1.1" id="Layer_1" xmlns="http://www.w3.org/2000/svg" xmlns:xlink="http://www.w3.org/1999/xlink" x="0px" y="0px"
	 viewBox="0 0 70 40.411" style="enable-background:new 0 0 70 40.411;" xml:space="preserve">
<style type="text/css">
	.st0{clip-path:url(#SVGID_2_);}
	.st1{fill:#1A759A;}
</style>
<g>
	<defs>
		<polygon id="SVGID_1_" points="35,0 70,20.205 35,40.411 0,20.205 		"/>
	</defs>
	<clipPath id="SVGID_2_">
		<use xlink:href="#SVGID_1_"  style="overflow:visible;"/>
	</clipPath>
	<g class="st0">
		<path class="st1" d="M39.926,24.312c-0.061-0.035-0.112-0.077-0.151-0.124c-0.142-0.171-0.081-0.374,0.151-0.508l3.828-2.21
			l-5.469-3.157c-0.302-0.174-0.302-0.457,0-0.631c0.302-0.174,0.792-0.174,1.094,0l6.016,3.473c0.302,0.174,0.302,0.457,0,0.632
			l-2.835,1.637l5.763-0.344c0.233-0.014,0.463,0.034,0.627,0.128l5.195,2.999c0.301,0.174,0.793,0.174,1.094,0l9.844-5.683
			c0.301-0.174,0.301-0.458,0-0.631L37.739,4.107c-0.301-0.174-0.793-0.174-1.094,0L26.801,9.79c-0.301,0.174-0.301,0.458,0,0.631
			l1.641,0.947c0.302,0.174,0.302,0.457,0,0.631c-0.302,0.174-0.792,0.174-1.094,0l-1.641-0.947c-0.905-0.522-0.905-1.372,0-1.894
			l9.844-5.683c0.904-0.522,2.377-0.522,3.281,0l27.344,15.786c0.905,0.522,0.905,1.372,0,1.894l-9.844,5.683
			c-0.905,0.522-2.377,0.522-3.281,0l-4.935-2.849l-7.564,0.451C40.316,24.455,40.087,24.405,39.926,24.312z"/>
		<path class="st1" d="M36.061,22.932l-3.402-4.05l2.253-1.673c-0.377-0.084-0.748-0.22-1.095-0.42
			c-0.061-0.035-0.1-0.073-0.152-0.108l-2.522,1.872c-0.182,0.134-0.215,0.316-0.085,0.469l3.608,4.301
			c0.641,0.767,0.287,1.967-0.757,2.57l-4.914,2.837c-0.302,0.174-0.302,0.457,0,0.632c0.302,0.174,0.792,0.174,1.094,0l4.915-2.838
			C36.513,25.652,36.986,24.041,36.061,22.932z"/>
		<path class="st1" d="M8.215,17.362c-0.302-0.174-0.302-0.457,0-0.631l4.914-2.837c1.508-0.871,4.298-1.144,6.218-0.611
			l7.003,1.971l0.629-0.284c0.337-0.151,0.825-0.111,1.086,0.079c0.261,0.194,0.201,0.475-0.137,0.627l-1.01,0.453
			c-0.232,0.105-0.548,0.123-0.813,0.049l-7.433-2.091c-1.328-0.367-3.408-0.163-4.451,0.439l-4.914,2.837
			C9.006,17.537,8.517,17.537,8.215,17.362z"/>
		<path class="st1" d="M13.172,26.498c-0.091-0.052-0.16-0.119-0.196-0.193l-3.182-6.372c-0.078-0.157-0.002-0.326,0.199-0.441
			l3.681-2.101c0.303-0.172,0.844-0.198,1.093,0.004c0.301,0.175,0.298,0.458-0.005,0.631l-3.354,1.914l2.94,5.889l9.9,1.851
			l3.624-2.092c0.302-0.174,0.792-0.174,1.094,0c0.302,0.174,0.302,0.457,0,0.631l-3.958,2.285
			c-0.206,0.119-0.509,0.161-0.784,0.109l-10.739-2.009C13.362,26.585,13.257,26.547,13.172,26.498z"/>
		<path class="st1" d="M39.379,11.368c-1.031-0.595-1.649-1.169-1.984-1.546c-0.196-0.22-0.045-0.489,0.334-0.602
			c0.381-0.112,0.844-0.026,1.042,0.193c0.284,0.321,0.81,0.809,1.702,1.323c1.977,1.142,3.522,1.47,3.538,1.473
			c0.397,0.084,0.614,0.337,0.47,0.569c-0.142,0.231-0.579,0.354-0.98,0.273C43.425,13.038,41.631,12.668,39.379,11.368z"/>
		<path class="st1" d="M30.629,16.42c-3.04-1.755-2.021-4.127,3.028-7.053c1.282-0.743,3.266-1.73,5.681-1.731
			c1.542-0.001,3.026,0.405,4.417,1.207c1.39,0.803,2.093,1.659,2.091,2.55c-0.001,1.395-1.713,2.541-2.999,3.281
			C37.778,17.587,33.669,18.174,30.629,16.42z M42.661,9.474c-1.104-0.637-2.19-0.946-3.321-0.946c-1.382,0-2.884,0.482-4.587,1.469
			c-4.386,2.542-5.378,4.436-3.03,5.791c2.348,1.356,5.628,0.783,10.032-1.749c1.711-0.984,2.543-1.851,2.544-2.649
			C44.299,10.738,43.764,10.111,42.661,9.474z"/>
		<path class="st1" d="M49.77,19.892l-4.375-2.526c-0.302-0.174-0.302-0.457,0-0.631c0.302-0.174,0.792-0.174,1.094,0l4.375,2.526
			c0.302,0.174,0.302,0.457,0,0.631C50.562,20.067,50.072,20.067,49.77,19.892z"/>
		<path class="st1" d="M58.52,21.155l-9.844-5.683c-0.302-0.174-0.302-0.457,0-0.632c0.302-0.174,0.792-0.174,1.094,0l9.844,5.683
			c0.302,0.174,0.302,0.457,0,0.632C59.312,21.329,58.822,21.329,58.52,21.155z"/>
	</g>
</g>
</svg>
