<?xml version="1.0" encoding="utf-8"?>
<!-- Generator: Adobe Illustrator 24.3.0, SVG Export Plug-In . SVG Version: 6.00 Build 0)  -->
<svg version="1.1" id="Layer_1" xmlns="http://www.w3.org/2000/svg" xmlns:xlink="http://www.w3.org/1999/xlink" x="0px" y="0px"
	 viewBox="0 0 20.658 27.456" style="enable-background:new 0 0 20.658 27.456;" xml:space="preserve">
<style type="text/css">
	.st0{fill:#22A3CF;}
</style>
<path class="st0" d="M14.904,14.384c0.234-1.033,0.354-2.104,0.351-3.211c-0.003-1.095-0.13-2.048-0.37-2.844
	c-0.249-0.793-0.583-1.412-1.031-1.847c-0.438-0.429-0.962-0.668-1.569-0.715c-0.599-0.043-1.262,0.115-1.983,0.489
	C9.562,6.64,8.889,7.174,8.283,7.841c-0.596,0.672-1.115,1.451-1.55,2.332c-0.443,0.896-0.783,1.865-1.017,2.908
	c-0.233,1.043-0.354,2.124-0.35,3.219c0.003,1.105,0.129,2.049,0.369,2.836c0.24,0.788,0.584,1.393,1.031,1.817
	c0.439,0.439,0.962,0.677,1.56,0.729c0.609,0.039,1.282-0.135,2.022-0.519c0.721-0.373,1.383-0.893,1.98-1.555
	c0.606-0.677,1.126-1.456,1.56-2.348C14.331,16.376,14.66,15.421,14.904,14.384z M19.856,3.762c0.526,1.265,0.796,2.8,0.802,4.609
	c0.006,1.82-0.255,3.631-0.77,5.427c-0.507,1.801-1.224,3.496-2.15,5.092c-0.917,1.592-2.004,3.019-3.272,4.303
	c-1.269,1.275-2.632,2.296-4.102,3.057c-1.488,0.772-2.864,1.172-4.118,1.204c-1.263,0.028-2.346-0.273-3.28-0.907
	c-0.923-0.639-1.647-1.585-2.173-2.851C0.277,22.437,0.006,20.901,0,19.082c-0.006-1.809,0.255-3.62,0.762-5.421
	c0.517-1.796,1.233-3.491,2.149-5.083C3.837,6.981,4.915,5.55,6.173,4.261C7.423,2.977,8.796,1.95,10.286,1.18
	c1.469-0.761,2.835-1.156,4.108-1.179c1.273-0.023,2.366,0.283,3.288,0.92C18.615,1.554,19.339,2.502,19.856,3.762z"/>
</svg>
