<?xml version="1.0" encoding="utf-8"?>
<!-- Generator: Adobe Illustrator 24.3.0, SVG Export Plug-In . SVG Version: 6.00 Build 0)  -->
<svg version="1.1" id="Layer_1" xmlns="http://www.w3.org/2000/svg" xmlns:xlink="http://www.w3.org/1999/xlink" x="0px" y="0px"
	 viewBox="0 0 17.118 29.375" style="enable-background:new 0 0 17.118 29.375;" xml:space="preserve">
<style type="text/css">
	.st0{fill:#22A3CF;}
</style>
<path class="st0" d="M11.962,0l0.059,18.587l5.082-2.635l0.016,4.999l-16.25,8.424l-0.016-4.999l5.679-2.944L6.492,8.911
	c-0.237,0.456-0.614,0.995-1.134,1.608c-0.52,0.612-1.089,1.229-1.694,1.848c-0.615,0.623-1.25,1.196-1.903,1.731
	c-0.653,0.535-1.232,0.932-1.744,1.199L0,10.131C0.484,9.88,1.071,9.419,1.762,8.737c0.691-0.672,1.372-1.408,2.044-2.196
	C4.469,5.756,5.045,5.027,5.537,4.34c0.491-0.685,0.804-1.18,0.936-1.493L11.962,0z"/>
</svg>
