<?xml version="1.0" encoding="utf-8"?>
<!-- Generator: Adobe Illustrator 24.3.0, SVG Export Plug-In . SVG Version: 6.00 Build 0)  -->
<svg version="1.1" id="Layer_1" xmlns="http://www.w3.org/2000/svg" xmlns:xlink="http://www.w3.org/1999/xlink" x="0px" y="0px"
	 viewBox="0 0 20.02 20.02" style="enable-background:new 0 0 20.02 20.02;" xml:space="preserve">
<style type="text/css">
	.st0{fill:#378292;}
</style>
<path class="st0" d="M19.844,18.32c0.234,0.208,0.234,0.43,0,0.664l-0.859,0.859c-0.234,0.234-0.456,0.234-0.664,0l-4.726-4.727
	c-0.104-0.104-0.156-0.208-0.156-0.312v-0.547c-1.536,1.328-3.307,1.992-5.312,1.992c-2.24,0-4.154-0.794-5.742-2.383
	C0.794,12.279,0,10.365,0,8.125c0-2.24,0.794-4.154,2.383-5.742S5.885,0,8.125,0c2.24,0,4.154,0.794,5.742,2.383
	c1.589,1.589,2.383,3.503,2.383,5.742c0,2.005-0.664,3.776-1.992,5.312h0.547c0.13,0,0.234,0.052,0.312,0.156L19.844,18.32z
	 M3.711,12.539c1.224,1.224,2.695,1.836,4.414,1.836s3.19-0.612,4.414-1.836c1.224-1.224,1.836-2.695,1.836-4.414
	c0-1.719-0.612-3.19-1.836-4.414c-1.224-1.224-2.695-1.836-4.414-1.836s-3.19,0.612-4.414,1.836S1.875,6.406,1.875,8.125
	C1.875,9.844,2.487,11.315,3.711,12.539z"/>
</svg>
